:SAMPLES-PER-SECOND 30
:FRAME-RANGE 1-4244
:FULLY-SPECIFIED
:DEGREES
1194
root  -71.9146 35.7673 -50.1144 177.247 18.4163 172.911
RightUpLeg  -26.6558 1.11389 -9.79197
RightLeg  79.4067 -2.08087 -15.1555
RightFoot  -5.28155 -0.565925 9.98636
RightToes  -3.31784e-009 0 -3.6325e-017
Spine  17.7991 1.76809 -4.56329
Spine1  -0.271833 0.944522 -0.98141
HEad  -6.24737 -52.2286 16.8437
LeftShoulder1  1.33508 -0.226404 -29.7204
LeftArm  8.45797 13.2196 -33.454
LeftForeArm  3.56994 -20.5241 -6.24303
LeftHand  0.153333 -1.92353 -2.27682
RightShoulder  9.76077 14.1523 48.396
RightArm  10.5322 5.48522 19.1646
RightForeArm  15.1976 49.7369 12.122
RightHand  -0.0636229 2.24298 -1.15534
LeftUpLeg  -21.3917 11.4466 -7.98349
LeftLeg  46.8751 1.23527 1.87007
LeftFoot  -24.4137 -0.306755 -3.95538
LeftToes  1.0277e-010 -6.71454e-011 3.04227e-011
1195
root  -71.6312 36.1282 -52.3877 176.526 20.2007 173.904
RightUpLeg  -30.4862 -2.93684 -6.87633
RightLeg  72.1467 -4.92214 -17.6203
RightFoot  -8.52941 -0.316463 10.4966
RightToes  -3.31784e-009 0 -3.6325e-017
Spine  17.1242 0.584137 -4.41047
Spine1  -0.41504 -0.499137 1.40328
HEad  -6.85434 -55.5864 16.9834
LeftShoulder1  1.43684 -0.535538 -29.501
LeftArm  6.82115 10.6901 -34.962
LeftForeArm  12.4448 -28.7693 -5.55408
LeftHand  0.0877736 -1.851 -1.2512
RightShoulder  8.6156 12.491 47.1502
RightArm  13.2752 3.24541 19.1396
RightForeArm  14.4769 48.4395 11.5967
RightHand  -0.0718866 2.27688 -1.2783
LeftUpLeg  -14.6889 13.0603 -6.69717
LeftLeg  44.1734 1.77455 2.27939
LeftFoot  -26.8654 -0.416255 -4.23696
LeftToes  1.0277e-010 -6.71454e-011 3.04227e-011
1196
root  -71.3156 36.613 -54.6962 176.371 23.3508 174.768
RightUpLeg  -32.7832 -6.2357 -2.77672
RightLeg  59.956 -8.89403 -16.606
RightFoot  -9.61547 -0.220899 10.2894
RightToes  -3.31784e-009 0 -3.6325e-017
Spine  15.7057 -0.273406 -3.23785
Spine1  -0.291095 -1.24866 2.657
HEad  -7.24813 -58.3221 16.7899
LeftShoulder1  1.43761 -0.599397 -28.9568
LeftArm  1.96621 9.78624 -35.6012
LeftForeArm  20.8986 -38.4948 -7.60559
LeftHand  0.0880881 -2.3725 -1.12833
RightShoulder  7.58395 10.8544 46.2242
RightArm  14.8814 0.891654 18.387
RightForeArm  15.2569 48.734 11.6657
RightHand  -0.102433 2.44408 -1.71749
LeftUpLeg  -8.32939 14.9902 -5.64046
LeftLeg  40.4038 3.12026 3.24956
LeftFoot  -27.0317 -0.685374 -6.14861
LeftToes  1.0277e-010 -6.71454e-011 3.04227e-011
1197
root  -70.9548 37.0563 -57.0043 176.601 27.3187 175.715
RightUpLeg  -32.6636 -9.31561 2.50573
RightLeg  42.7509 -9.83707 -9.88226
RightFoot  -9.15876 -0.257628 10.222
RightToes  -3.31784e-009 0 -3.6325e-017
Spine  14.3253 -0.901175 -1.11852
Spine1  -0.445053 -1.61771 3.31701
HEad  -6.27247 -59.7742 15.0886
LeftShoulder1  1.37028 -0.454242 -28.5296
LeftArm  -2.10971 9.74926 -34.9335
LeftForeArm  26.4879 -48.2925 -10.6119
LeftHand  0.185935 -2.44188 -2.56694
RightShoulder  6.62029 9.18642 45.6469
RightArm  15.4568 -0.83853 17.6586
RightForeArm  15.6161 48.7702 11.6539
RightHand  -0.0931203 2.475 -1.5755
LeftUpLeg  -2.95375 17.2533 -4.38647
LeftLeg  37.7179 3.80328 3.53761
LeftFoot  -25.2335 -1.06963 -10.0014
LeftToes  1.0277e-010 -6.71454e-011 3.04227e-011
1198
root  -70.4143 37.1922 -59.3425 176.426 31.7539 175.78
RightUpLeg  -30.5654 -12.2096 7.83359
RightLeg  25.14 -6.92069 -3.74885
RightFoot  -7.11936 -0.582208 14.4036
RightToes  -3.31784e-009 0 -3.6325e-017
Spine  12.7144 -1.06408 -0.52316
Spine1  -0.365762 -1.81506 4.20378
HEad  -5.24385 -59.6517 13.0968
LeftShoulder1  1.24351 -0.142075 -28.0002
LeftArm  -5.59021 9.99027 -33.4638
LeftForeArm  30.1911 -56.9645 -14.7021
LeftHand  0.240041 -2.28926 -3.45106
RightShoulder  5.95383 8.02909 45.1608
RightArm  15.6694 -2.07563 16.8219
RightForeArm  14.799 48.7418 11.7044
RightHand  -0.096684 2.6243 -1.60931
LeftUpLeg  0.930812 20.6356 -3.34922
LeftLeg  38.1744 3.63853 3.4509
LeftFoot  -21.9581 -1.29812 -15.3052
LeftToes  1.0277e-010 -6.71454e-011 3.04227e-011
1199
root  -69.7647 36.9853 -61.6817 175.622 35.1962 175.226
RightUpLeg  -27.931 -13.0199 10.4915
RightLeg  14.7474 -8.11861 -1.09437
RightFoot  -6.01859 -0.719086 14.5116
RightToes  -3.31784e-009 0 -3.6325e-017
Spine  11.0836 -1.43432 -0.219016
Spine1  0.343402 -2.27429 4.73497
HEad  -4.54323 -59.0927 11.7257
LeftShoulder1  1.179 0.00836374 -27.6101
LeftArm  -8.79787 9.49824 -31.2679
LeftForeArm  34.1911 -63.7892 -19.7306
LeftHand  0.258935 -1.9 -3.97313
RightShoulder  5.30621 6.82414 44.9432
RightArm  15.0685 -2.53542 16.1322
RightForeArm  14.0609 48.613 11.7045
RightHand  -0.0146424 2.69984 -0.421489
LeftUpLeg  3.2536 23.2903 -2.53279
LeftLeg  41.9024 3.26546 3.53725
LeftFoot  -16.3098 -0.810153 -20.7082
LeftToes  1.0277e-010 -6.71454e-011 3.04227e-011
1200
root  -69.0793 36.3076 -63.9696 174.216 37.2194 174.085
RightUpLeg  -27.1873 -11.2849 10.7113
RightLeg  15.2391 -8.33103 -1.12272
RightFoot  -4.4056 -0.940674 14.9459
RightToes  -3.31784e-009 0 -3.6325e-017
Spine  9.75593 -2.14791 0.152453
Spine1  0.97975 -2.94944 4.64311
HEad  -4.09629 -59.0409 10.4596
LeftShoulder1  1.15279 0.0302314 -27.0511
LeftArm  -10.9673 7.66654 -28.54
LeftForeArm  37.7726 -68.2397 -24.8214
LeftHand  0.232622 -1.25501 -3.96426
RightShoulder  4.07583 4.63518 43.7721
RightArm  14.4928 -2.4775 17.3486
RightForeArm  14.3945 48.3519 11.5649
RightHand  -0.036109 2.77859 -0.728852
LeftUpLeg  3.48494 24.0129 -2.18452
LeftLeg  49.3371 1.59009 2.43543
LeftFoot  -7.98142 0.701689 -22.0605
LeftToes  1.0277e-010 -6.71454e-011 3.04227e-011
1201
root  -68.4836 35.4929 -65.8913 173.827 38.6971 175.273
RightUpLeg  -31.5677 -10.8786 14.5563
RightLeg  27.8043 -8.27881 -4.95029
RightFoot  -0.993398 1.5597 -17.1448
RightToes  -3.31784e-009 0 -3.6325e-017
Spine  10.9379 -2.60542 2.89223
Spine1  0.995078 -3.325 5.08118
HEad  -4.08476 -59.5476 8.6316
LeftShoulder1  1.2236 -0.333337 -25.7098
LeftArm  -13.3233 5.02679 -28.225
LeftForeArm  41.0693 -69.8704 -27.0403
LeftHand  0.188336 -1.2094 -3.21406
RightShoulder  3.95784 4.35975 44.0086
RightArm  12.7395 -3.77902 15.3213
RightForeArm  14.3256 49.4325 12.051
RightHand  -0.0541726 2.74063 -0.987517
LeftUpLeg  1.17777 22.4754 0.0113186
LeftLeg  59.3561 -0.613692 -0.560924
LeftFoot  3.83321 3.00018 -22.4434
LeftToes  1.0277e-010 -6.71454e-011 3.04227e-011
